<svg width="29" height="33" viewBox="0 0 29 33" fill="none" xmlns="http://www.w3.org/2000/svg">
<g id="Group 1">
<path id="Vector" d="M11.1838 13.9258C10.2718 13.9258 9.55176 14.7258 9.55176 15.7018C9.55176 16.6778 10.2878 17.4778 11.1838 17.4778C12.0958 17.4778 12.8158 16.6778 12.8158 15.7018C12.8318 14.7258 12.0958 13.9258 11.1838 13.9258ZM17.0238 13.9258C16.1118 13.9258 15.3918 14.7258 15.3918 15.7018C15.3918 16.6778 16.1278 17.4778 17.0238 17.4778C17.9358 17.4778 18.6558 16.6778 18.6558 15.7018C18.6558 14.7258 17.9358 13.9258 17.0238 13.9258Z" fill="#F9FDF8"/>
<path id="Vector_2" d="M24.8001 0.5H3.36008C1.55208 0.5 0.0800781 1.972 0.0800781 3.796V25.428C0.0800781 27.252 1.55208 28.724 3.36008 28.724H21.5041L20.6561 25.764L22.7041 27.668L24.6401 29.46L28.0801 32.5V3.796C28.0801 1.972 26.6081 0.5 24.8001 0.5ZM18.6241 21.396C18.6241 21.396 18.0481 20.708 17.5681 20.1C19.6641 19.508 20.4641 18.196 20.4641 18.196C19.8081 18.628 19.1841 18.932 18.6241 19.14C17.8241 19.476 17.0561 19.7 16.3041 19.828C14.7681 20.116 13.3601 20.036 12.1601 19.812C11.2481 19.636 10.4641 19.38 9.80808 19.124C9.44008 18.98 9.04008 18.804 8.64008 18.58C8.59208 18.548 8.54408 18.532 8.49608 18.5C8.46408 18.484 8.44808 18.468 8.43208 18.452C8.14408 18.292 7.98408 18.18 7.98408 18.18C7.98408 18.18 8.75208 19.46 10.7841 20.068C10.3041 20.676 9.71208 21.396 9.71208 21.396C6.17608 21.284 4.83208 18.964 4.83208 18.964C4.83208 13.812 7.13608 9.636 7.13608 9.636C9.44008 7.908 11.6321 7.956 11.6321 7.956L11.7921 8.148C8.91208 8.98 7.58408 10.244 7.58408 10.244C7.58408 10.244 7.93608 10.052 8.52808 9.78C10.2401 9.028 11.6001 8.82 12.1601 8.772C12.2561 8.756 12.3361 8.74 12.4321 8.74C13.4081 8.612 14.5121 8.58 15.6641 8.708C17.1841 8.884 18.8161 9.332 20.4801 10.244C20.4801 10.244 19.2161 9.044 16.4961 8.212L16.7201 7.956C16.7201 7.956 18.9121 7.908 21.2161 9.636C21.2161 9.636 23.5201 13.812 23.5201 18.964C23.5201 18.964 22.1601 21.284 18.6241 21.396Z" fill="#FCFEFC"/>
</g>
</svg>
