<svg width="80" height="23" viewBox="0 0 80 23" fill="none" xmlns="http://www.w3.org/2000/svg">
<g clip-path="url(#clip0_1370_3728)">
<path d="M28.5454 4.2832C27.3741 4.2832 26.419 4.6256 25.7162 5.3284C25.0134 6.03121 24.671 6.95024 24.671 8.12155V9.07668H22.9771V11.3473H24.671V18.3933H27.2839V11.3473H29.4464V9.07668H27.2839V8.04951C27.2839 7.16647 27.9327 6.57181 28.8517 6.57181C29.05 6.57181 29.2482 6.58983 29.4645 6.60785V4.33727C29.1941 4.30123 28.8878 4.2832 28.5454 4.2832Z" fill="black"/>
<path d="M32.92 4.39062H30.2891V18.3926H32.92V4.39062Z" fill="black"/>
<path d="M36.1079 4.44538C34.7924 4.3733 33.9814 6.24743 34.9906 7.14844C35.5853 7.74315 36.6305 7.74315 37.2251 7.14844C37.5315 6.84209 37.6937 6.46366 37.6937 6.0312C37.6937 5.14816 36.9909 4.44538 36.1079 4.44538ZM37.4234 9.07667H34.7924V18.3933H37.4234V9.07667Z" fill="black"/>
<path d="M43.28 8.89648C41.9646 8.89648 40.8834 9.34701 40.0364 10.23C39.2075 11.113 38.793 12.2843 38.793 13.744C38.793 15.2037 39.2075 16.375 40.0364 17.258C40.8834 18.141 41.9646 18.5915 43.28 18.5915C44.4514 18.5915 45.3164 18.2672 45.9111 17.6004V22.9885H48.5241V9.07671H46.0551V10.0498C45.4786 9.27492 44.5595 8.89648 43.28 8.89648ZM43.7126 11.149C45.028 11.149 45.9111 12.0681 45.9111 13.5277V13.9603C45.9111 15.4199 45.028 16.339 43.7126 16.339C42.361 16.339 41.46 15.3839 41.46 13.744C41.46 12.1042 42.361 11.149 43.7126 11.149Z" fill="black"/>
<path d="M55.6445 8.89648C54.3829 8.89648 53.4638 9.27492 52.8873 10.0498V9.07671H50.4004V22.9885H53.0317V17.6004C53.6261 18.2672 54.5094 18.5915 55.6445 18.5915C56.9779 18.5915 58.0592 18.141 58.8882 17.258C59.7351 16.375 60.1494 15.2037 60.1494 13.744C60.1494 12.2843 59.7351 11.113 58.8882 10.23C58.0592 9.34701 56.9779 8.89648 55.6445 8.89648ZM55.2298 11.149C56.5815 11.149 57.4827 12.1042 57.4827 13.744C57.4827 15.3839 56.5815 16.339 55.2298 16.339C53.9144 16.339 53.0317 15.4199 53.0317 13.9603V13.5277C53.0317 12.0681 53.9144 11.149 55.2298 11.149Z" fill="black"/>
<path d="M65.1444 8.89648C64.0092 8.89648 63.0722 9.23888 62.3333 9.92366C61.6124 10.5904 61.252 11.3653 61.252 12.2303L63.8832 12.3384C63.8832 11.6717 64.3338 11.113 65.1807 11.113C65.9917 11.113 66.388 11.5996 66.388 12.5546V12.9151L64.7301 13.0052C62.2432 13.1133 61 14.0504 61 15.8344C61 17.6184 62.171 18.5915 64.0993 18.5915C65.0726 18.5915 65.8653 18.2672 66.4782 17.6364V18.3933H69.0188V12.6448C69.0188 10.194 67.6676 8.89648 65.1444 8.89648ZM66.388 15.0415C66.388 15.9966 65.703 16.5552 64.7122 16.5552C63.9913 16.5552 63.6308 16.2669 63.6308 15.7083C63.6308 15.0956 64.0814 14.7712 64.9825 14.7352L66.388 14.645V15.0415Z" fill="black"/>
<path d="M79.5759 9.07617H76.6563L74.5299 14.6265L72.3855 9.07617H69.4844L73.1244 17.5638L70.7455 22.988H73.6108L79.5759 9.07617Z" fill="black"/>
<path fill-rule="evenodd" clip-rule="evenodd" d="M0 1.82366C0 0.571862 0.953012 -0.220272 2.12876 0.0544189L14.9176 3.04227C16.0933 3.31695 17.0464 4.2107 17.0464 5.04069V17.6565C17.0464 18.4855 16.0934 19.3802 14.9176 19.6549L2.12876 22.6428C0.95308 22.9175 0 22.1268 0 20.8735V1.82366ZM3.62236 6.45186C3.62236 5.4411 4.45257 4.7411 5.47467 4.88805L11.0334 5.68722C12.0564 5.8343 12.8857 6.60501 12.8857 7.4091C12.8857 8.21297 12.0555 8.81241 11.0334 8.74809L5.47467 8.39848C4.45167 8.33412 3.62236 7.4628 3.62236 6.45186ZM3.52377 11.3486C3.52377 10.3024 4.38314 9.48897 5.4411 9.53177L11.195 9.76441C12.2539 9.80726 13.1124 10.5163 13.1124 11.3486C13.1124 12.1807 12.253 12.89 11.195 12.9328L5.4411 13.1654C4.3822 13.2083 3.52377 12.3951 3.52377 11.3486ZM5.75315 18.1796C6.92998 17.9998 7.88395 16.9975 7.88395 15.9407C7.88395 14.884 6.92998 14.0874 5.75315 14.1614C4.57635 14.2354 3.62236 15.2377 3.62236 16.4002C3.62236 17.5627 4.57635 18.3594 5.75315 18.1796Z" fill="url(#paint0_linear_1370_3728)"/>
</g>
<defs>
<linearGradient id="paint0_linear_1370_3728" x1="-15.056" y1="-12.5645" x2="-15.6007" y2="51.0432" gradientUnits="userSpaceOnUse">
<stop stop-color="#1400FF"/>
<stop offset="1" stop-color="#FC199B"/>
</linearGradient>
<clipPath id="clip0_1370_3728">
<rect width="80" height="22.9885" fill="white"/>
</clipPath>
</defs>
</svg>
