<svg width="174" height="30" viewBox="0 0 174 30" fill="none" xmlns="http://www.w3.org/2000/svg">
<g id="innoConnect 1" clip-path="url(#clip0_1315_5834)">
<path id="Vector" d="M3.16 5.79992C2.38667 5.79992 1.74667 5.57325 1.24 5.11992C0.733329 4.63992 0.479996 4.05325 0.479996 3.35992C0.479996 2.61325 0.733329 2.02659 1.24 1.59992C1.74667 1.14659 2.38667 0.919922 3.16 0.919922C3.90667 0.919922 4.53333 1.14659 5.04 1.59992C5.54667 2.02659 5.8 2.61325 5.8 3.35992C5.8 4.05325 5.54667 4.63992 5.04 5.11992C4.53333 5.57325 3.90667 5.79992 3.16 5.79992ZM1.04 28.9999V9.43992H5.2V28.9999H1.04ZM10.6664 28.9999V13.3519H13.4184L13.6744 15.4959H13.7704C14.4957 14.7919 15.2744 14.1946 16.1064 13.7039C16.9384 13.2132 17.8877 12.9679 18.9544 12.9679C20.6184 12.9679 21.8344 13.5012 22.6024 14.5679C23.3704 15.6346 23.7544 17.1599 23.7544 19.1439V28.9999H20.4264V19.5599C20.4264 18.2159 20.213 17.2559 19.7864 16.6799C19.381 16.1039 18.7197 15.8159 17.8024 15.8159C17.077 15.8159 16.4264 15.9972 15.8504 16.3599C15.2957 16.7226 14.677 17.2452 13.9944 17.9279V28.9999H10.6664ZM28.4164 28.9999V13.3519H31.1684L31.4244 15.4959H31.5204C32.2457 14.7919 33.0244 14.1946 33.8564 13.7039C34.6884 13.2132 35.6377 12.9679 36.7044 12.9679C38.3684 12.9679 39.5844 13.5012 40.3524 14.5679C41.1204 15.6346 41.5044 17.1599 41.5044 19.1439V28.9999H38.1764V19.5599C38.1764 18.2159 37.963 17.2559 37.5364 16.6799C37.131 16.1039 36.4697 15.8159 35.5524 15.8159C34.827 15.8159 34.1764 15.9972 33.6004 16.3599C33.0457 16.7226 32.427 17.2452 31.7444 17.9279V28.9999H28.4164ZM52.4704 29.3839C50.529 29.3839 48.8117 28.6692 47.3184 27.2399C45.8464 25.8106 45.1104 23.7946 45.1104 21.1919C45.1104 18.5892 45.8464 16.5732 47.3184 15.1439C48.8117 13.6932 50.529 12.9679 52.4704 12.9679C54.4117 12.9679 56.129 13.6932 57.6224 15.1439C59.1157 16.5732 59.8624 18.5892 59.8624 21.1919C59.8624 23.7946 59.1157 25.8106 57.6224 27.2399C56.129 28.6692 54.4117 29.3839 52.4704 29.3839ZM52.4704 26.6639C53.6864 26.6639 54.6464 26.1626 55.3504 25.1599C56.0757 24.1572 56.4384 22.8346 56.4384 21.1919C56.4384 19.5492 56.0757 18.2266 55.3504 17.2239C54.6464 16.1999 53.6864 15.6879 52.4704 15.6879C51.2544 15.6879 50.2837 16.1999 49.5584 17.2239C48.8544 18.2266 48.5024 19.5492 48.5024 21.1919C48.5024 22.8346 48.8544 24.1572 49.5584 25.1599C50.2837 26.1626 51.2544 26.6639 52.4704 26.6639Z" fill="#6A95B1"/>
<path id="Vector_2" d="M72.1784 29.3838C69.533 29.3838 67.3144 28.4451 65.5224 26.5678C63.7304 24.6905 62.8344 22.0238 62.8344 18.5678C62.8344 15.1545 63.7517 12.4878 65.5864 10.5678C67.421 8.62643 69.661 7.65576 72.3064 7.65576C73.629 7.65576 74.7917 7.92243 75.7944 8.45576C76.797 8.98909 77.6184 9.59709 78.2584 10.2798L76.4664 12.4558C75.9117 11.9011 75.3037 11.4531 74.6424 11.1118C73.981 10.7705 73.2344 10.5998 72.4024 10.5998C70.589 10.5998 69.117 11.3038 67.9864 12.7118C66.8557 14.1198 66.2904 16.0398 66.2904 18.4718C66.2904 20.9465 66.8344 22.8985 67.9224 24.3278C69.0104 25.7571 70.4717 26.4718 72.3064 26.4718C73.245 26.4718 74.0877 26.2691 74.8344 25.8638C75.6024 25.4585 76.2957 24.9145 76.9144 24.2318L78.7064 26.3438C77.853 27.3251 76.8824 28.0825 75.7944 28.6158C74.7277 29.1278 73.5224 29.3838 72.1784 29.3838ZM88.3454 29.3838C86.404 29.3838 84.6867 28.6691 83.1934 27.2398C81.7214 25.8105 80.9854 23.7945 80.9854 21.1918C80.9854 18.5891 81.7214 16.5731 83.1934 15.1438C84.6867 13.6931 86.404 12.9678 88.3454 12.9678C90.2867 12.9678 92.004 13.6931 93.4974 15.1438C94.9907 16.5731 95.7374 18.5891 95.7374 21.1918C95.7374 23.7945 94.9907 25.8105 93.4974 27.2398C92.004 28.6691 90.2867 29.3838 88.3454 29.3838ZM88.3454 26.6638C89.5614 26.6638 90.5214 26.1625 91.2254 25.1598C91.9507 24.1571 92.3134 22.8345 92.3134 21.1918C92.3134 19.5491 91.9507 18.2265 91.2254 17.2238C90.5214 16.1998 89.5614 15.6878 88.3454 15.6878C87.1294 15.6878 86.1587 16.1998 85.4334 17.2238C84.7294 18.2265 84.3774 19.5491 84.3774 21.1918C84.3774 22.8345 84.7294 24.1571 85.4334 25.1598C86.1587 26.1625 87.1294 26.6638 88.3454 26.6638ZM99.5414 28.9998V13.3518H102.293L102.549 15.4958H102.645C103.371 14.7918 104.149 14.1945 104.981 13.7038C105.813 13.2131 106.763 12.9678 107.829 12.9678C109.493 12.9678 110.709 13.5011 111.477 14.5678C112.245 15.6345 112.629 17.1598 112.629 19.1438V28.9998H109.301V19.5598C109.301 18.2158 109.088 17.2558 108.661 16.6798C108.256 16.1038 107.595 15.8158 106.677 15.8158C105.952 15.8158 105.301 15.9971 104.725 16.3598C104.171 16.7225 103.552 17.2451 102.869 17.9278V28.9998H99.5414ZM117.291 28.9998V13.3518H120.043L120.299 15.4958H120.395C121.121 14.7918 121.899 14.1945 122.731 13.7038C123.563 13.2131 124.513 12.9678 125.579 12.9678C127.243 12.9678 128.459 13.5011 129.227 14.5678C129.995 15.6345 130.379 17.1598 130.379 19.1438V28.9998H127.051V19.5598C127.051 18.2158 126.838 17.2558 126.411 16.6798C126.006 16.1038 125.345 15.8158 124.427 15.8158C123.702 15.8158 123.051 15.9971 122.475 16.3598C121.921 16.7225 121.302 17.2451 120.619 17.9278V28.9998H117.291ZM141.601 29.3838C139.468 29.3838 137.665 28.6691 136.193 27.2398C134.721 25.7891 133.985 23.7731 133.985 21.1918C133.985 19.4851 134.327 18.0238 135.009 16.8078C135.692 15.5705 136.577 14.6211 137.665 13.9598C138.753 13.2985 139.905 12.9678 141.121 12.9678C143.212 12.9678 144.801 13.6505 145.889 15.0158C146.977 16.3598 147.521 18.1411 147.521 20.3598C147.521 21.0638 147.468 21.6291 147.361 22.0558H137.217C137.367 23.5278 137.868 24.6905 138.721 25.5438C139.596 26.3758 140.705 26.7918 142.049 26.7918C142.732 26.7918 143.372 26.6851 143.969 26.4718C144.588 26.2585 145.185 25.9705 145.761 25.6078L146.913 27.7198C146.188 28.1891 145.377 28.5838 144.481 28.9038C143.585 29.2238 142.625 29.3838 141.601 29.3838ZM137.185 19.7518H144.641C144.641 16.9571 143.489 15.5598 141.185 15.5598C140.204 15.5598 139.329 15.9225 138.561 16.6478C137.793 17.3731 137.335 18.4078 137.185 19.7518ZM157.535 29.3838C155.423 29.3838 153.652 28.6691 152.223 27.2398C150.794 25.8105 150.079 23.7945 150.079 21.1918C150.079 18.5891 150.847 16.5731 152.383 15.1438C153.94 13.6931 155.754 12.9678 157.823 12.9678C158.826 12.9678 159.7 13.1385 160.447 13.4798C161.194 13.8211 161.844 14.2371 162.399 14.7278L160.767 16.9038C159.85 16.0931 158.922 15.6878 157.983 15.6878C156.66 15.6878 155.572 16.1998 154.719 17.2238C153.887 18.2265 153.471 19.5491 153.471 21.1918C153.471 22.8345 153.876 24.1571 154.687 25.1598C155.519 26.1625 156.586 26.6638 157.887 26.6638C158.527 26.6638 159.135 26.5251 159.711 26.2478C160.287 25.9705 160.81 25.6291 161.279 25.2238L162.655 27.4318C161.162 28.7331 159.455 29.3838 157.535 29.3838ZM170.853 29.3838C169.104 29.3838 167.867 28.8718 167.141 27.8478C166.416 26.8238 166.053 25.5011 166.053 23.8798V16.0078H163.813V13.5118L166.245 13.3518L166.629 9.03176H169.381V13.3518H173.477V16.0078H169.381V23.8798C169.381 25.7785 170.149 26.7278 171.685 26.7278C171.963 26.7278 172.251 26.6958 172.549 26.6318C172.869 26.5465 173.136 26.4505 173.349 26.3438L173.957 28.8078C173.531 28.9571 173.051 29.0851 172.517 29.1918C171.984 29.3198 171.429 29.3838 170.853 29.3838Z" fill="#DAE5EB"/>
</g>
<defs>
<clipPath id="clip0_1315_5834">
<rect width="174" height="30" fill="white"/>
</clipPath>
</defs>
</svg>
