<svg width="174" height="30" viewBox="0 0 174 30" fill="none" xmlns="http://www.w3.org/2000/svg">
<g id="innoConnect 1" clip-path="url(#clip0_1424_3730)">
<path id="Vector" d="M3.16047 5.79992C2.38714 5.79992 1.74714 5.57325 1.24047 5.11992C0.733802 4.63992 0.480469 4.05325 0.480469 3.35992C0.480469 2.61325 0.733802 2.02659 1.24047 1.59992C1.74714 1.14659 2.38714 0.919922 3.16047 0.919922C3.90714 0.919922 4.5338 1.14659 5.04047 1.59992C5.54714 2.02659 5.80047 2.61325 5.80047 3.35992C5.80047 4.05325 5.54714 4.63992 5.04047 5.11992C4.5338 5.57325 3.90714 5.79992 3.16047 5.79992ZM1.04047 28.9999V9.43992H5.20047V28.9999H1.04047ZM10.6669 28.9999V13.3519H13.4189L13.6749 15.4959H13.7709C14.4962 14.7919 15.2749 14.1946 16.1069 13.7039C16.9389 13.2132 17.8882 12.9679 18.9549 12.9679C20.6189 12.9679 21.8349 13.5012 22.6029 14.5679C23.3709 15.6346 23.7549 17.1599 23.7549 19.1439V28.9999H20.4269V19.5599C20.4269 18.2159 20.2135 17.2559 19.7869 16.6799C19.3815 16.1039 18.7202 15.8159 17.8029 15.8159C17.0775 15.8159 16.4269 15.9972 15.8509 16.3599C15.2962 16.7226 14.6775 17.2452 13.9949 17.9279V28.9999H10.6669ZM28.4169 28.9999V13.3519H31.1689L31.4249 15.4959H31.5209C32.2462 14.7919 33.0249 14.1946 33.8569 13.7039C34.6889 13.2132 35.6382 12.9679 36.7049 12.9679C38.3689 12.9679 39.5849 13.5012 40.3529 14.5679C41.1209 15.6346 41.5049 17.1599 41.5049 19.1439V28.9999H38.1769V19.5599C38.1769 18.2159 37.9635 17.2559 37.5369 16.6799C37.1315 16.1039 36.4702 15.8159 35.5529 15.8159C34.8275 15.8159 34.1769 15.9972 33.6009 16.3599C33.0462 16.7226 32.4275 17.2452 31.7449 17.9279V28.9999H28.4169ZM52.4709 29.3839C50.5295 29.3839 48.8122 28.6692 47.3189 27.2399C45.8469 25.8106 45.1109 23.7946 45.1109 21.1919C45.1109 18.5892 45.8469 16.5732 47.3189 15.1439C48.8122 13.6932 50.5295 12.9679 52.4709 12.9679C54.4122 12.9679 56.1295 13.6932 57.6229 15.1439C59.1162 16.5732 59.8629 18.5892 59.8629 21.1919C59.8629 23.7946 59.1162 25.8106 57.6229 27.2399C56.1295 28.6692 54.4122 29.3839 52.4709 29.3839ZM52.4709 26.6639C53.6869 26.6639 54.6469 26.1626 55.3509 25.1599C56.0762 24.1572 56.4389 22.8346 56.4389 21.1919C56.4389 19.5492 56.0762 18.2266 55.3509 17.2239C54.6469 16.1999 53.6869 15.6879 52.4709 15.6879C51.2549 15.6879 50.2842 16.1999 49.5589 17.2239C48.8549 18.2266 48.5029 19.5492 48.5029 21.1919C48.5029 22.8346 48.8549 24.1572 49.5589 25.1599C50.2842 26.1626 51.2549 26.6639 52.4709 26.6639Z" fill="white"/>
<path id="Vector_2" d="M72.178 29.3843C69.5326 29.3843 67.314 28.4456 65.522 26.5683C63.73 24.691 62.834 22.0243 62.834 18.5683C62.834 15.155 63.7513 12.4882 65.586 10.5682C67.4206 8.62692 69.6606 7.65625 72.306 7.65625C73.6286 7.65625 74.7913 7.92292 75.794 8.45625C76.7966 8.98958 77.618 9.59758 78.258 10.2802L76.466 12.4563C75.9113 11.9016 75.3033 11.4536 74.642 11.1123C73.9806 10.771 73.234 10.6003 72.402 10.6003C70.5886 10.6003 69.1166 11.3042 67.986 12.7122C66.8553 14.1202 66.29 16.0402 66.29 18.4722C66.29 20.9469 66.834 22.8989 67.922 24.3282C69.01 25.7575 70.4713 26.4722 72.306 26.4722C73.2446 26.4722 74.0873 26.2696 74.834 25.8643C75.602 25.459 76.2953 24.9149 76.914 24.2323L78.706 26.3442C77.8526 27.3256 76.882 28.0829 75.794 28.6162C74.7273 29.1282 73.522 29.3843 72.178 29.3843ZM88.345 29.3843C86.4036 29.3843 84.6863 28.6695 83.193 27.2402C81.721 25.8109 80.985 23.7949 80.985 21.1922C80.985 18.5895 81.721 16.5736 83.193 15.1442C84.6863 13.6936 86.4036 12.9683 88.345 12.9683C90.2863 12.9683 92.0036 13.6936 93.497 15.1442C94.9903 16.5736 95.737 18.5895 95.737 21.1922C95.737 23.7949 94.9903 25.8109 93.497 27.2402C92.0036 28.6695 90.2863 29.3843 88.345 29.3843ZM88.345 26.6642C89.561 26.6642 90.521 26.163 91.225 25.1602C91.9503 24.1575 92.313 22.8349 92.313 21.1922C92.313 19.5495 91.9503 18.227 91.225 17.2243C90.521 16.2003 89.561 15.6882 88.345 15.6882C87.129 15.6882 86.1583 16.2003 85.433 17.2243C84.729 18.227 84.377 19.5495 84.377 21.1922C84.377 22.8349 84.729 24.1575 85.433 25.1602C86.1583 26.163 87.129 26.6642 88.345 26.6642ZM99.541 29.0002V13.3523H102.293L102.549 15.4963H102.645C103.371 14.7923 104.149 14.195 104.981 13.7043C105.813 13.2136 106.763 12.9683 107.829 12.9683C109.493 12.9683 110.709 13.5015 111.477 14.5682C112.245 15.6349 112.629 17.1602 112.629 19.1442V29.0002H109.301V19.5602C109.301 18.2162 109.088 17.2563 108.661 16.6803C108.256 16.1042 107.595 15.8162 106.677 15.8162C105.952 15.8162 105.301 15.9976 104.725 16.3603C104.171 16.7229 103.552 17.2455 102.869 17.9282V29.0002H99.541ZM117.291 29.0002V13.3523H120.043L120.299 15.4963H120.395C121.121 14.7923 121.899 14.195 122.731 13.7043C123.563 13.2136 124.513 12.9683 125.579 12.9683C127.243 12.9683 128.459 13.5015 129.227 14.5682C129.995 15.6349 130.379 17.1602 130.379 19.1442V29.0002H127.051V19.5602C127.051 18.2162 126.838 17.2563 126.411 16.6803C126.006 16.1042 125.345 15.8162 124.427 15.8162C123.702 15.8162 123.051 15.9976 122.475 16.3603C121.921 16.7229 121.302 17.2455 120.619 17.9282V29.0002H117.291ZM141.601 29.3843C139.468 29.3843 137.665 28.6695 136.193 27.2402C134.721 25.7895 133.985 23.7736 133.985 21.1922C133.985 19.4855 134.327 18.0243 135.009 16.8083C135.692 15.571 136.577 14.6216 137.665 13.9602C138.753 13.2989 139.905 12.9683 141.121 12.9683C143.212 12.9683 144.801 13.6509 145.889 15.0162C146.977 16.3602 147.521 18.1416 147.521 20.3603C147.521 21.0643 147.468 21.6295 147.361 22.0562H137.217C137.367 23.5282 137.868 24.691 138.721 25.5443C139.596 26.3763 140.705 26.7922 142.049 26.7922C142.732 26.7922 143.372 26.6856 143.969 26.4722C144.588 26.2589 145.185 25.9709 145.761 25.6082L146.913 27.7202C146.188 28.1895 145.377 28.5842 144.481 28.9042C143.585 29.2242 142.625 29.3843 141.601 29.3843ZM137.185 19.7523H144.641C144.641 16.9576 143.489 15.5603 141.185 15.5603C140.204 15.5603 139.329 15.923 138.561 16.6483C137.793 17.3736 137.335 18.4083 137.185 19.7523ZM157.535 29.3843C155.423 29.3843 153.652 28.6695 152.223 27.2402C150.794 25.8109 150.079 23.7949 150.079 21.1922C150.079 18.5895 150.847 16.5736 152.383 15.1442C153.94 13.6936 155.754 12.9683 157.823 12.9683C158.826 12.9683 159.7 13.1389 160.447 13.4802C161.194 13.8215 161.844 14.2375 162.399 14.7282L160.767 16.9042C159.85 16.0935 158.922 15.6882 157.983 15.6882C156.66 15.6882 155.572 16.2003 154.719 17.2243C153.887 18.227 153.471 19.5495 153.471 21.1922C153.471 22.8349 153.876 24.1575 154.687 25.1602C155.519 26.163 156.586 26.6642 157.887 26.6642C158.527 26.6642 159.135 26.5255 159.711 26.2482C160.287 25.9709 160.81 25.6296 161.279 25.2243L162.655 27.4322C161.162 28.7335 159.455 29.3843 157.535 29.3843ZM170.853 29.3843C169.104 29.3843 167.867 28.8722 167.141 27.8482C166.416 26.8242 166.053 25.5015 166.053 23.8802V16.0082H163.813V13.5122L166.245 13.3523L166.629 9.03225H169.381V13.3523H173.477V16.0082H169.381V23.8802C169.381 25.7789 170.149 26.7283 171.685 26.7283C171.963 26.7283 172.251 26.6962 172.549 26.6322C172.869 26.5469 173.136 26.451 173.349 26.3442L173.957 28.8083C173.531 28.9576 173.051 29.0855 172.517 29.1922C171.984 29.3202 171.429 29.3843 170.853 29.3843Z" fill="#B5CAD8"/>
</g>
<defs>
<clipPath id="clip0_1424_3730">
<rect width="174" height="30" fill="white"/>
</clipPath>
</defs>
</svg>
