<svg width="174" height="30" viewBox="0 0 174 30" fill="none" xmlns="http://www.w3.org/2000/svg">
<g clip-path="url(#clip0_1927_2463)">
<path d="M3.15998 5.79992C2.38665 5.79992 1.74665 5.57325 1.23998 5.11992C0.733313 4.63992 0.47998 4.05325 0.47998 3.35992C0.47998 2.61325 0.733313 2.02659 1.23998 1.59992C1.74665 1.14659 2.38665 0.919922 3.15998 0.919922C3.90665 0.919922 4.53331 1.14659 5.03998 1.59992C5.54665 2.02659 5.79998 2.61325 5.79998 3.35992C5.79998 4.05325 5.54665 4.63992 5.03998 5.11992C4.53331 5.57325 3.90665 5.79992 3.15998 5.79992ZM1.03998 28.9999V9.43992H5.19998V28.9999H1.03998ZM10.6664 28.9999V13.3519H13.4184L13.6744 15.4959H13.7704C14.4957 14.7919 15.2744 14.1946 16.1064 13.7039C16.9384 13.2132 17.8877 12.9679 18.9544 12.9679C20.6184 12.9679 21.8344 13.5012 22.6024 14.5679C23.3704 15.6346 23.7544 17.1599 23.7544 19.1439V28.9999H20.4264V19.5599C20.4264 18.2159 20.213 17.2559 19.7864 16.6799C19.381 16.1039 18.7197 15.8159 17.8024 15.8159C17.077 15.8159 16.4264 15.9972 15.8504 16.3599C15.2957 16.7226 14.677 17.2452 13.9944 17.9279V28.9999H10.6664ZM28.4164 28.9999V13.3519H31.1684L31.4244 15.4959H31.5204C32.2457 14.7919 33.0244 14.1946 33.8564 13.7039C34.6884 13.2132 35.6377 12.9679 36.7044 12.9679C38.3684 12.9679 39.5844 13.5012 40.3524 14.5679C41.1204 15.6346 41.5044 17.1599 41.5044 19.1439V28.9999H38.1764V19.5599C38.1764 18.2159 37.963 17.2559 37.5364 16.6799C37.131 16.1039 36.4697 15.8159 35.5524 15.8159C34.827 15.8159 34.1764 15.9972 33.6004 16.3599C33.0457 16.7226 32.427 17.2452 31.7444 17.9279V28.9999H28.4164ZM52.4704 29.3839C50.529 29.3839 48.8117 28.6692 47.3184 27.2399C45.8464 25.8106 45.1104 23.7946 45.1104 21.1919C45.1104 18.5892 45.8464 16.5732 47.3184 15.1439C48.8117 13.6932 50.529 12.9679 52.4704 12.9679C54.4117 12.9679 56.129 13.6932 57.6224 15.1439C59.1157 16.5732 59.8624 18.5892 59.8624 21.1919C59.8624 23.7946 59.1157 25.8106 57.6224 27.2399C56.129 28.6692 54.4117 29.3839 52.4704 29.3839ZM52.4704 26.6639C53.6864 26.6639 54.6464 26.1626 55.3504 25.1599C56.0757 24.1572 56.4384 22.8346 56.4384 21.1919C56.4384 19.5492 56.0757 18.2266 55.3504 17.2239C54.6464 16.1999 53.6864 15.6879 52.4704 15.6879C51.2544 15.6879 50.2837 16.1999 49.5584 17.2239C48.8544 18.2266 48.5024 19.5492 48.5024 21.1919C48.5024 22.8346 48.8544 24.1572 49.5584 25.1599C50.2837 26.1626 51.2544 26.6639 52.4704 26.6639Z" fill="#172A46"/>
<path d="M72.1785 29.3843C69.5331 29.3843 67.3145 28.4456 65.5225 26.5683C63.7305 24.691 62.8345 22.0243 62.8345 18.5683C62.8345 15.155 63.7518 12.4882 65.5865 10.5682C67.4211 8.62692 69.6611 7.65625 72.3065 7.65625C73.6291 7.65625 74.7918 7.92292 75.7945 8.45625C76.7971 8.98958 77.6185 9.59758 78.2585 10.2802L76.4665 12.4563C75.9118 11.9016 75.3038 11.4536 74.6425 11.1123C73.9811 10.771 73.2345 10.6003 72.4025 10.6003C70.5891 10.6003 69.1171 11.3042 67.9865 12.7122C66.8558 14.1202 66.2905 16.0402 66.2905 18.4722C66.2905 20.9469 66.8345 22.8989 67.9225 24.3282C69.0105 25.7575 70.4718 26.4722 72.3065 26.4722C73.2451 26.4722 74.0878 26.2696 74.8345 25.8643C75.6025 25.459 76.2958 24.9149 76.9145 24.2323L78.7065 26.3442C77.8531 27.3256 76.8825 28.0829 75.7945 28.6162C74.7278 29.1282 73.5225 29.3843 72.1785 29.3843ZM88.3455 29.3843C86.4041 29.3843 84.6868 28.6695 83.1935 27.2402C81.7215 25.8109 80.9855 23.7949 80.9855 21.1922C80.9855 18.5895 81.7215 16.5736 83.1935 15.1442C84.6868 13.6936 86.4041 12.9683 88.3455 12.9683C90.2868 12.9683 92.0041 13.6936 93.4975 15.1442C94.9908 16.5736 95.7375 18.5895 95.7375 21.1922C95.7375 23.7949 94.9908 25.8109 93.4975 27.2402C92.0041 28.6695 90.2868 29.3843 88.3455 29.3843ZM88.3455 26.6642C89.5615 26.6642 90.5215 26.163 91.2255 25.1602C91.9508 24.1575 92.3135 22.8349 92.3135 21.1922C92.3135 19.5495 91.9508 18.227 91.2255 17.2243C90.5215 16.2003 89.5615 15.6882 88.3455 15.6882C87.1295 15.6882 86.1588 16.2003 85.4335 17.2243C84.7295 18.227 84.3775 19.5495 84.3775 21.1922C84.3775 22.8349 84.7295 24.1575 85.4335 25.1602C86.1588 26.163 87.1295 26.6642 88.3455 26.6642ZM99.5415 29.0002V13.3523H102.293L102.549 15.4963H102.645C103.371 14.7923 104.149 14.195 104.981 13.7043C105.813 13.2136 106.763 12.9683 107.829 12.9683C109.493 12.9683 110.709 13.5015 111.477 14.5682C112.245 15.6349 112.629 17.1602 112.629 19.1442V29.0002H109.301V19.5602C109.301 18.2162 109.088 17.2563 108.661 16.6803C108.256 16.1042 107.595 15.8162 106.677 15.8162C105.952 15.8162 105.301 15.9976 104.725 16.3603C104.171 16.7229 103.552 17.2455 102.869 17.9282V29.0002H99.5415ZM117.291 29.0002V13.3523H120.043L120.299 15.4963H120.395C121.121 14.7923 121.899 14.195 122.731 13.7043C123.563 13.2136 124.513 12.9683 125.579 12.9683C127.243 12.9683 128.459 13.5015 129.227 14.5682C129.995 15.6349 130.379 17.1602 130.379 19.1442V29.0002H127.051V19.5602C127.051 18.2162 126.838 17.2563 126.411 16.6803C126.006 16.1042 125.345 15.8162 124.427 15.8162C123.702 15.8162 123.051 15.9976 122.475 16.3603C121.921 16.7229 121.302 17.2455 120.619 17.9282V29.0002H117.291ZM141.601 29.3843C139.468 29.3843 137.665 28.6695 136.193 27.2402C134.721 25.7895 133.985 23.7736 133.985 21.1922C133.985 19.4855 134.327 18.0243 135.009 16.8083C135.692 15.571 136.577 14.6216 137.665 13.9602C138.753 13.2989 139.905 12.9683 141.121 12.9683C143.212 12.9683 144.801 13.6509 145.889 15.0162C146.977 16.3602 147.521 18.1416 147.521 20.3603C147.521 21.0643 147.468 21.6295 147.361 22.0562H137.217C137.367 23.5282 137.868 24.691 138.721 25.5443C139.596 26.3763 140.705 26.7922 142.049 26.7922C142.732 26.7922 143.372 26.6856 143.969 26.4722C144.588 26.2589 145.185 25.9709 145.761 25.6082L146.913 27.7202C146.188 28.1895 145.377 28.5842 144.481 28.9042C143.585 29.2242 142.625 29.3843 141.601 29.3843ZM137.185 19.7523H144.641C144.641 16.9576 143.489 15.5603 141.185 15.5603C140.204 15.5603 139.329 15.923 138.561 16.6483C137.793 17.3736 137.335 18.4083 137.185 19.7523ZM157.535 29.3843C155.423 29.3843 153.652 28.6695 152.223 27.2402C150.794 25.8109 150.079 23.7949 150.079 21.1922C150.079 18.5895 150.847 16.5736 152.383 15.1442C153.94 13.6936 155.754 12.9683 157.823 12.9683C158.826 12.9683 159.7 13.1389 160.447 13.4802C161.194 13.8215 161.844 14.2375 162.399 14.7282L160.767 16.9042C159.85 16.0935 158.922 15.6882 157.983 15.6882C156.66 15.6882 155.572 16.2003 154.719 17.2243C153.887 18.227 153.471 19.5495 153.471 21.1922C153.471 22.8349 153.876 24.1575 154.687 25.1602C155.519 26.163 156.586 26.6642 157.887 26.6642C158.527 26.6642 159.135 26.5255 159.711 26.2482C160.287 25.9709 160.81 25.6296 161.279 25.2243L162.655 27.4322C161.162 28.7335 159.455 29.3843 157.535 29.3843ZM170.853 29.3843C169.104 29.3843 167.867 28.8722 167.141 27.8482C166.416 26.8242 166.053 25.5015 166.053 23.8802V16.0082H163.813V13.5122L166.245 13.3523L166.629 9.03225H169.381V13.3523H173.477V16.0082H169.381V23.8802C169.381 25.7789 170.149 26.7283 171.685 26.7283C171.963 26.7283 172.251 26.6962 172.549 26.6322C172.869 26.5469 173.136 26.451 173.349 26.3442L173.957 28.8083C173.531 28.9576 173.051 29.0855 172.517 29.1922C171.984 29.3202 171.429 29.3843 170.853 29.3843Z" fill="#6A95B1"/>
</g>
<defs>
<clipPath id="clip0_1927_2463">
<rect width="174" height="30" fill="white"/>
</clipPath>
</defs>
</svg>
