<svg width="19" height="22" viewBox="0 0 19 22" fill="none" xmlns="http://www.w3.org/2000/svg">
<path id="Vector" d="M16.9454 0H2.03345C1.49414 0 0.976928 0.24693 0.595583 0.686469C0.214237 1.12601 0 1.72215 0 2.34375L0 19.5312C0 20.1529 0.214237 20.749 0.595583 21.1885C0.976928 21.6281 1.49414 21.875 2.03345 21.875H7.84783V14.438H5.17893V10.9375H7.84783V8.26953C7.84783 5.23486 9.41528 3.55859 11.816 3.55859C12.9658 3.55859 14.168 3.79492 14.168 3.79492V6.77344H12.8433C11.5381 6.77344 11.131 7.70703 11.131 8.66455V10.9375H14.0448L13.5788 14.438H11.131V21.875H16.9454C17.4847 21.875 18.0019 21.6281 18.3832 21.1885C18.7646 20.749 18.9788 20.1529 18.9788 19.5312V2.34375C18.9788 1.72215 18.7646 1.12601 18.3832 0.686469C18.0019 0.24693 17.4847 0 16.9454 0Z" fill="#457B9D"/>
</svg>
