<svg width="20" height="22" viewBox="0 0 20 22" fill="none" xmlns="http://www.w3.org/2000/svg">
<path id="Vector" d="M10.4756 5.33081C7.78133 5.33081 5.60809 7.83569 5.60809 10.9412C5.60809 14.0466 7.78133 16.5515 10.4756 16.5515C13.17 16.5515 15.3432 14.0466 15.3432 10.9412C15.3432 7.83569 13.17 5.33081 10.4756 5.33081ZM10.4756 14.5886C8.73451 14.5886 7.3111 12.9529 7.3111 10.9412C7.3111 8.92944 8.73027 7.2937 10.4756 7.2937C12.221 7.2937 13.6402 8.92944 13.6402 10.9412C13.6402 12.9529 12.2168 14.5886 10.4756 14.5886ZM16.6777 5.10132C16.6777 5.82886 16.1693 6.40991 15.5423 6.40991C14.9111 6.40991 14.407 5.82397 14.407 5.10132C14.407 4.37866 14.9153 3.79272 15.5423 3.79272C16.1693 3.79272 16.6777 4.37866 16.6777 5.10132ZM19.9015 6.42944C19.8295 4.67651 19.4821 3.12378 18.368 1.84448C17.258 0.565185 15.9109 0.164795 14.39 0.0769043C12.8226 -0.0256348 8.12448 -0.0256348 6.55703 0.0769043C5.04042 0.159912 3.69326 0.560303 2.5791 1.8396C1.46494 3.1189 1.1218 4.67163 1.04554 6.42456C0.95658 8.2312 0.95658 13.6462 1.04554 15.4529C1.11756 17.2058 1.46494 18.7585 2.5791 20.0378C3.69326 21.3171 5.03618 21.7175 6.55703 21.8054C8.12448 21.908 12.8226 21.908 14.39 21.8054C15.9109 21.7224 17.258 21.322 18.368 20.0378C19.4779 18.7585 19.8253 17.2058 19.9015 15.4529C19.9905 13.6462 19.9905 8.23608 19.9015 6.42944ZM17.8765 17.3914C17.5461 18.3484 16.9064 19.0857 16.0719 19.4714C14.8221 20.0427 11.8567 19.9109 10.4756 19.9109C9.0946 19.9109 6.12492 20.0378 4.87944 19.4714C4.04911 19.0906 3.40942 18.3533 3.07475 17.3914C2.5791 15.9509 2.69348 12.533 2.69348 10.9412C2.69348 9.34937 2.58334 5.92651 3.07475 4.49097C3.40519 3.53394 4.04488 2.79663 4.87944 2.41089C6.12916 1.8396 9.0946 1.97144 10.4756 1.97144C11.8567 1.97144 14.8264 1.84448 16.0719 2.41089C16.9022 2.79175 17.5419 3.52905 17.8765 4.49097C18.3722 5.9314 18.2578 9.34937 18.2578 10.9412C18.2578 12.533 18.3722 15.9558 17.8765 17.3914Z" fill="#F9ED7B"/>
</svg>
