<svg width="20" height="22" viewBox="0 0 20 22" fill="none" xmlns="http://www.w3.org/2000/svg">
<path id="Vector" d="M17.9136 0H3.00171C1.87908 0 0.968262 1.0498 0.968262 2.34375V19.5312C0.968262 20.8252 1.87908 21.875 3.00171 21.875H17.9136C19.0363 21.875 19.9471 20.8252 19.9471 19.5312V2.34375C19.9471 1.0498 19.0363 0 17.9136 0ZM15.8421 7.75391C15.8505 7.89062 15.8505 8.03223 15.8505 8.16895C15.8505 12.4023 13.0546 17.2803 7.94552 17.2803C6.3696 17.2803 4.90806 16.7529 3.67952 15.8447C3.90405 15.874 4.1201 15.8838 4.34887 15.8838C5.64942 15.8838 6.84407 15.376 7.79725 14.5166C6.57718 14.4873 5.55199 13.5645 5.20037 12.2949C5.62824 12.3682 6.01375 12.3682 6.45433 12.2363C5.18343 11.9385 4.23025 10.6494 4.23025 9.0918V9.05273C4.59881 9.29199 5.03092 9.43848 5.48421 9.45801C5.10312 9.16584 4.79071 8.76947 4.57486 8.30427C4.35902 7.83908 4.24644 7.31953 4.24719 6.79199C4.24719 6.19629 4.38276 5.64941 4.62423 5.17578C5.99257 7.11914 8.0472 8.38867 10.3518 8.52539C9.95779 6.35254 11.3685 4.58984 13.063 4.58984C13.8637 4.58984 14.5839 4.97559 15.0922 5.60059C15.7192 5.46387 16.3208 5.19531 16.8546 4.8291C16.647 5.57129 16.2106 6.19629 15.6345 6.5918C16.1937 6.52344 16.7359 6.34277 17.2358 6.09375C16.8588 6.7334 16.3843 7.2998 15.8421 7.75391Z" fill="#457B9D"/>
</svg>
